PathFileType	4	(X/Y/Z)	C:\Users\WrightLab\Desktop\Jo\P1.2Trial14.trc
DataRate	CameraRate	NumFrames	NumMarkers	Units	OrigDataRate	OrigDataStartFrame	OrigNumFrames
100.00	100.00	       20	19	mm	100.00	470	       938
Frame#	Time	Headset_Front			Headset_Back			Headset_Left			Headset_Right			Left_Shoulder			Right_Shoulder			Sternum			C7			Left Elbow			Right Elbow			Left Wrist			Right Wrist			Left ASIS			Right ASIS			S2			Left Knee			Right Knee			Left Ankle			Right Ankle			
		X1	Y1	Z1	X2	Y2	Z2	X3	Y3	Z3	X4	Y4	Z4	X5	Y5	Z5	X6	Y6	Z6	X7	Y7	Z7	X8	Y8	Z8	X9	Y9	Z9	X10	Y10	Z10	X11	Y11	Z11	X12	Y12	Z12	X13	Y13	Z13	X14	Y14	Z14	X15	Y15	Z15	X16	Y16	Z16	X17	Y17	Z17	X18	Y18	Z18	X19	Y19	Z19	

470	4.690	-532.83075	1296.38489	68.99445	-695.74719	1501.83557	231.51001	-719.36511	1391.90857	99.79611	-510.03299	1378.45752	194.70749	-822.05237	1209.51636	112.19177	-529.75562	1261.08459	411.99457	-608.00281	1145.23535	202.58853	-760.51691	1317.54138	333.69595	-832.00787	937.04510	28.39120	-529.28943	1029.53320	541.43579	-648.58344	868.91321	-112.55096	-436.72974	774.16840	552.34412	-720.46576	831.82178	146.54099	-531.56689	847.51453	355.83224	-833.69830	926.96429	437.12891	-756.20740	427.89517	200.87451	-454.91455	468.98279	335.69537	-881.87665	74.54910	301.43311	-377.06290	143.77646	323.18011	
471	4.700	-527.04724	1294.69678	64.46687	-690.18103	1499.99878	226.45770	-713.65497	1389.55945	95.27496	-504.03809	1376.28662	189.62404	-815.99304	1207.52808	108.54904	-522.17273	1259.84375	406.87854	-602.73248	1143.13684	198.56334	-754.23389	1316.10693	329.92807	-824.59412	935.12372	25.56922	-523.88641	1028.52136	537.86096	-640.91779	865.58362	-115.76326	-434.26065	772.66693	549.02112	-715.83472	830.97809	143.19347	-527.27185	846.09625	352.53571	-828.43329	927.47681	435.36722	-755.00720	427.91171	198.32079	-450.82394	468.27643	330.92206	-881.87665	74.54910	301.43311	-365.59811	147.21095	311.43561	
472	4.710	-521.43835	1292.84412	60.61784	-684.80249	1498.37451	221.57648	-708.12433	1387.08337	90.86745	-498.68567	1374.49097	185.39415	-810.08539	1205.88696	105.26102	-516.38422	1260.17615	403.03372	-597.41345	1141.06079	195.40041	-747.89636	1315.23499	326.20450	-816.91040	934.00128	22.16966	-517.20111	1028.15247	534.64746	-633.60663	860.86316	-118.70364	-431.33023	771.24908	544.95947	-844.41052	929.16052	45.99311	-522.29468	844.04486	348.08313	-822.48065	927.17072	433.49374	-753.12061	426.58688	195.29541	-446.07422	467.65161	326.39438	-881.87665	74.54910	301.43311	-354.31143	151.46457	298.83893	
473	4.720	-515.70062	1289.84106	56.93901	-678.91638	1496.87085	216.71800	-702.32782	1385.14648	86.17682	-492.35565	1373.28650	181.17007	-804.27173	1203.78406	102.02432	-508.08905	1257.73059	396.61597	-591.62292	1138.98193	191.31403	-741.63226	1314.80017	323.01700	-809.52625	931.88904	20.54997	-510.60046	1027.67297	529.91223	-626.78943	857.42615	-121.88953	-427.28946	770.06384	541.39917	-839.00592	926.80499	45.61432	-517.15790	842.04114	344.34274	-816.52814	926.77460	431.73373	-751.72766	426.20053	192.62184	-441.90540	467.19989	321.58710	-881.87665	74.54910	301.43311	-344.44064	154.72568	288.53244	
474	4.730	-510.29578	1287.77063	52.75569	-673.15564	1495.33923	212.03354	-696.36591	1382.95642	81.70074	-486.41229	1371.15723	176.82660	-798.02661	1202.13403	99.54071	-501.52429	1257.11023	393.52643	-586.08484	1137.06763	187.60924	-734.49091	1313.69604	319.19257	-801.94073	930.18298	18.03539	-503.39456	1027.42029	525.83868	-618.89893	852.10065	-124.00687	-422.90552	768.91437	537.28125	-832.72156	923.89777	46.58189	-511.29410	840.27368	339.96994	-809.91858	926.01935	429.56491	-750.26556	424.96838	190.10141	-437.64639	466.39240	317.44067	-881.62695	73.41861	301.84579	-335.12213	158.71460	279.13666	
475	4.740	-504.43152	1284.94873	49.07249	-666.83362	1493.74927	207.40791	-691.23206	1382.17822	78.18041	-481.01343	1370.22766	172.60371	-792.36249	1201.16321	96.22154	-493.91220	1256.05469	388.39044	-580.40942	1135.04126	184.21822	-727.72729	1312.45740	315.58508	-794.27380	928.79761	15.93197	-495.79062	1026.22400	522.78674	-612.08881	847.79010	-126.12240	-417.62967	767.35004	533.34113	-825.94653	920.92334	47.14146	-506.47876	838.54974	337.31030	-803.90643	925.85315	427.96616	-749.70905	424.81638	185.85567	-432.94305	466.09525	312.79303	-881.62695	73.41861	301.84579	-326.14963	161.36525	270.67761	
476	4.750	-498.87061	1282.61804	44.88704	-660.40753	1492.54016	202.51518	-685.63702	1379.82983	74.42141	-474.82861	1368.18848	167.47842	-786.57745	1198.99500	93.56856	-486.59283	1255.34668	384.20932	-574.13379	1133.55725	179.89833	-720.63428	1311.47351	312.60715	-786.80151	926.73016	13.62895	-488.39023	1025.70923	519.70862	-604.78693	843.77625	-129.47581	-412.29050	765.82318	529.24432	-820.20886	919.00049	47.03422	-501.56226	837.16553	333.61023	-797.10822	925.86859	426.18033	-748.78070	423.64590	182.95372	-428.17981	465.10980	308.35834	-881.62695	73.41861	301.84579	-319.26526	163.67551	263.80362	
477	4.760	-493.48566	1280.42590	40.77079	-653.91754	1490.97021	198.09291	-678.70599	1376.83728	68.07375	-468.76974	1366.00525	162.44556	-780.06293	1196.96741	91.70126	-478.27512	1253.61096	378.14032	-568.10468	1131.92761	176.66209	-713.50989	1310.34448	309.25815	-779.44513	924.07080	13.59543	-481.58261	1023.95728	515.10638	-598.15912	839.36493	-130.34970	-406.70081	764.49225	525.59100	-813.89185	915.86670	47.36816	-496.42599	834.64215	329.80188	-789.90771	925.01013	424.16806	-747.96930	422.90515	180.77965	-422.65295	464.14304	302.43411	-881.62695	73.41861	301.84579	-313.92715	164.03935	256.33194	
478	4.770	-488.36877	1277.96497	36.12829	-647.51874	1489.64880	194.04015	-673.11523	1375.37622	64.32813	-462.65671	1364.35193	157.76097	-773.75922	1195.86792	88.39105	-470.99539	1252.12292	375.26541	-562.26306	1129.52661	173.54105	-706.35236	1309.58447	306.38434	-771.81360	922.69000	10.79178	-473.59680	1024.13354	511.69943	-590.57843	835.19531	-131.81483	-400.11533	763.29041	521.32068	-806.88641	912.66876	47.58353	-490.84290	832.73938	325.21313	-783.33917	924.25909	422.48172	-746.54974	421.59296	179.08658	-417.72250	463.24786	296.92615	-881.08740	74.93520	299.92120	-308.32446	164.59093	249.50258	
479	4.780	-482.22989	1275.32947	32.38003	-640.69196	1488.11804	189.87732	-667.42206	1372.80823	62.52242	-455.93671	1362.48413	153.52098	-767.29535	1194.43079	85.80154	-462.00690	1250.26807	369.30927	-555.79089	1128.25879	170.51927	-698.74860	1308.21606	303.16153	-764.23322	920.62250	10.53350	-464.45084	1023.16272	508.35730	-584.04633	830.45166	-133.12061	-393.02057	761.36609	516.81683	-801.47620	910.08185	47.63535	-484.81653	832.04572	320.19992	-775.86597	924.03851	420.70990	-745.19977	421.30508	175.59615	-413.35513	461.33508	291.52753	-879.68854	76.05719	298.95859	-303.84656	162.71480	243.33078	
480	4.790	-477.47073	1272.36072	28.99981	-633.88043	1486.49536	186.29050	-661.36121	1370.70264	58.60184	-447.04877	1361.44360	148.27716	-760.74097	1192.80127	83.00211	-455.22437	1249.84253	365.49979	-549.44135	1126.46387	167.34326	-691.40680	1307.59277	300.35367	-756.52216	918.62036	9.63460	-455.44540	1021.70123	503.83688	-576.55237	826.73785	-133.95041	-385.62936	759.51007	511.35977	-794.00739	907.19409	48.08647	-478.78217	830.12952	317.49139	-769.22943	923.69250	418.77988	-743.76111	420.95358	172.99475	-408.63757	458.29810	285.02509	-880.57635	78.12710	298.88385	-301.43048	159.14413	238.28639	
481	4.800	-471.77908	1270.19153	24.68153	-626.64734	1484.77881	182.32217	-655.45758	1368.81946	54.78003	-440.70984	1359.41541	143.01083	-753.84375	1191.76440	80.37943	-448.50040	1246.63037	360.31903	-542.94714	1125.18225	163.41087	-683.74719	1306.11768	297.77649	-748.72577	916.44666	8.44099	-446.81680	1020.48767	499.50302	-569.46338	822.74524	-135.83946	-377.53989	758.04474	506.24506	-786.98676	906.12982	47.41526	-472.51883	828.56165	312.85101	-761.21393	922.96436	417.26141	-741.50775	420.30307	170.25858	-403.05420	455.77158	278.99329	-881.55511	77.99199	299.41232	-300.33975	154.47034	234.65715	
482	4.810	-466.54944	1267.53101	20.83193	-619.37909	1483.12524	178.65195	-650.49341	1366.17578	54.57141	-436.87698	1356.71912	139.73985	-746.88129	1190.74219	77.94543	-439.81650	1245.34436	353.77097	-536.38373	1122.99390	160.43999	-675.92285	1304.53210	295.00381	-740.42969	914.63776	7.49609	-437.37445	1019.52728	496.40750	-561.72430	819.43732	-136.85057	-369.49661	756.22150	502.06485	-778.26331	903.58185	48.43729	-466.66733	826.78156	308.57950	-753.87445	921.98657	415.62598	-738.90948	419.62354	168.40764	-397.82364	453.81735	273.20190	-880.09766	79.25231	298.38934	-299.42563	149.00557	231.99329	
483	4.820	-461.05026	1265.51624	16.85799	-612.22394	1481.88257	175.09052	-644.59131	1364.64941	51.78460	-429.41376	1354.49109	134.60234	-739.16901	1188.85449	76.07700	-432.86081	1243.39063	349.87875	-529.01007	1121.75220	157.72031	-668.67163	1303.97266	291.60727	-731.64325	913.47314	6.04120	-427.79663	1018.81403	492.80945	-553.40588	814.54156	-138.11485	-360.54306	754.28601	496.92227	-769.77716	899.84790	49.31155	-459.62180	825.44373	304.32706	-745.96405	921.11444	413.30380	-736.77185	419.23703	166.46376	-392.91245	450.60513	267.88693	-879.73730	80.09702	298.01657	-299.26245	143.20906	230.45741	
484	4.830	-455.18326	1263.51563	12.52639	-604.43982	1480.58289	171.47958	-638.23743	1362.48193	49.61911	-420.43863	1353.24487	129.88628	-732.19788	1187.95129	73.63361	-423.97662	1242.51563	344.80716	-522.32404	1120.17725	154.17355	-660.38812	1302.87805	290.23785	-722.61633	911.67041	5.33154	-417.68713	1017.69458	488.95343	-544.27618	809.96564	-135.68547	-352.37372	752.99414	490.19299	-762.69104	898.59003	46.84904	-452.31824	823.90778	299.50699	-737.52673	919.89575	411.60410	-733.69037	418.14920	164.62723	-387.92133	447.60220	262.56085	-879.37585	80.94252	297.64221	-299.48663	137.15047	229.39621	
485	4.840	-449.87991	1260.55005	8.76979	-596.95056	1479.59802	167.85999	-632.16797	1360.92078	45.96473	-413.58142	1351.60925	124.57790	-724.35089	1187.24377	71.70798	-415.34082	1242.11304	339.99689	-514.85620	1119.07678	151.02597	-651.47400	1302.07068	287.76709	-713.05017	910.59619	3.72594	-408.39886	1016.42566	484.60541	-535.43262	807.24347	-135.39600	-342.83246	751.78583	485.98196	-655.09784	817.35706	115.29804	-445.20844	822.64850	294.70062	-729.05139	919.20374	408.98917	-730.60712	417.70795	162.09666	-382.47739	445.50073	257.97577				-296.88196	134.22620	226.61656	
486	4.850	-444.21371	1258.73425	4.51398	-589.14508	1478.83875	164.33571	-625.55786	1359.24072	43.96671	-407.09991	1350.28259	119.84851	-716.38373	1185.64648	69.91402	-404.83600	1240.59558	338.07617	-507.89670	1118.01306	147.58522	-643.35205	1301.48438	285.44763	-703.37579	909.69287	2.19762	-398.03235	1015.99353	480.45071	-526.72620	802.74396	-135.87491	-334.03928	750.59436	480.85648	-650.02820	817.98993	112.03010	-437.50110	820.95276	291.43512	-720.93054	918.61200	407.70197	-727.03778	416.94525	160.73221	-376.88092	444.24429	253.05606				-291.71561	134.27301	222.85748	
487	4.860	-438.82175	1256.63953	1.36555	-581.14783	1478.36658	160.58286	-619.35449	1358.80273	41.06168	-401.45416	1348.21167	115.37777	-709.48022	1185.85852	67.24763	-396.65347	1240.34875	335.32416	-500.24390	1117.09204	145.15807	-635.60919	1301.64514	282.42816	-693.74689	909.28314	0.12024	-388.30453	1014.32135	476.37656	-519.55194	800.91479	-137.43394	-325.47580	748.71423	473.51242	-643.16425	816.31354	109.92043	-430.74048	819.47058	287.43738	-712.04132	918.37128	405.35190	-723.28821	415.53152	158.57256	-370.56250	443.06406	249.80070				-287.08063	134.43784	218.81911	
488	4.870	-432.96304	1255.38721	-2.57004	-572.79309	1478.11572	156.88600	-613.41327	1359.04858	37.65949	-392.42398	1347.61707	110.09278	-701.26190	1184.77893	65.87496	-386.89249	1239.07983	326.97894	-493.24298	1116.94458	140.92574	-626.96564	1300.91528	280.92743	-684.46729	908.73212	-1.41635	-377.72269	1013.36169	472.03085	-512.32813	798.39355	-139.54906	-315.68079	747.08258	466.85092	-637.24896	815.43579	107.43996	-423.55899	819.18481	282.38962	-702.62524	917.94189	403.70621	-720.43793	415.25485	156.42665	-363.19214	443.48837	244.58566				-282.12589	133.59804	216.12668	
489	4.880	-427.56503	1253.80151	-6.71261	-565.06860	1477.95044	153.38774	-606.18457	1358.20239	36.63428	-386.99619	1346.04529	105.28515	-693.83636	1185.04407	63.47230	-380.19492	1237.87354	325.53482	-485.44699	1116.57129	137.70644	-618.87970	1301.60486	277.11505	-675.34717	908.79584	-2.69642	-367.12936	1012.57806	467.13409	-505.63431	797.18024	-141.62546	-305.62329	746.11505	461.68732	-631.03198	815.97510	104.42142	-416.26294	818.53131	279.53561	-693.82635	918.43542	401.89917	-716.17358	414.30511	154.29759	-357.41714	442.97659	241.49335				-278.52063	131.87347	214.89616	
